<svg xmlns="http://www.w3.org/2000/svg" xmlns:xlink="http://www.w3.org/1999/xlink" contentStyleType="text/css" height="654px" preserveAspectRatio="none" style="width:606px;height:654px;background:#FFFFFF;" version="1.1" viewBox="0 0 606 654" width="606px" zoomAndPan="magnify"><defs/><g><!--cluster 1ed75a5d1e2c0bb05f410077765af687--><g id="cluster_1ed75a5d1e2c0bb05f410077765af687"><polygon fill="none" points="16,24.15,26,14.15,232,14.15,232,298.79,222,308.79,16,308.79,16,24.15" style="stroke:#181818;stroke-width:1.0;"/><line style="stroke:#181818;stroke-width:1.0;" x1="222" x2="232" y1="24.15" y2="14.15"/><line style="stroke:#181818;stroke-width:1.0;" x1="16" x2="222" y1="24.15" y2="24.15"/><line style="stroke:#181818;stroke-width:1.0;" x1="222" x2="222" y1="24.15" y2="308.79"/><text fill="#000000" font-family="sans-serif" font-size="14" font-weight="bold" lengthAdjust="spacing" textLength="53" x="93.5" y="40.1451">Mongo</text></g><!--cluster 23eeeb4347bdd26bfc6b7ee9a3b755dd--><g id="cluster_23eeeb4347bdd26bfc6b7ee9a3b755dd"><polygon fill="none" points="256,16,266,6,538,6,538,536.08,528,546.08,256,546.08,256,16" style="stroke:#181818;stroke-width:1.0;"/><line style="stroke:#181818;stroke-width:1.0;" x1="528" x2="538" y1="16" y2="6"/><line style="stroke:#181818;stroke-width:1.0;" x1="256" x2="528" y1="16" y2="16"/><line style="stroke:#181818;stroke-width:1.0;" x1="528" x2="528" y1="16" y2="546.08"/><text fill="#000000" font-family="sans-serif" font-size="14" font-weight="bold" lengthAdjust="spacing" textLength="55" x="365.5" y="31.9951">Python</text></g><!--entity 2a334de255ac0fe4d708c7550fdb165c--><g id="elem_2a334de255ac0fe4d708c7550fdb165c"><rect fill="#F1F1F1" height="111.4844" rx="2.5" ry="2.5" style="stroke:#181818;stroke-width:0.5;" width="183" x="32.5" y="54.15"/><rect fill="#F1F1F1" height="10" style="stroke:#181818;stroke-width:0.5;" width="15" x="195.5" y="59.15"/><rect fill="#F1F1F1" height="2" style="stroke:#181818;stroke-width:0.5;" width="4" x="193.5" y="61.15"/><rect fill="#F1F1F1" height="2" style="stroke:#181818;stroke-width:0.5;" width="4" x="193.5" y="65.15"/><text fill="#000000" font-family="sans-serif" font-size="14" font-weight="bold" lengthAdjust="spacing" textLength="54" x="47.5" y="87.1451">mongo</text><text fill="#000000" font-family="sans-serif" font-size="14" lengthAdjust="spacing" textLength="4" x="47.5" y="103.442">&#160;</text><text fill="#000000" font-family="sans-serif" font-size="14" lengthAdjust="spacing" textLength="143" x="47.5" y="119.7389">image: mongo:latest</text><text fill="#000000" font-family="sans-serif" font-size="14" lengthAdjust="spacing" textLength="99" x="47.5" y="136.0357">restart: always</text><text fill="#000000" font-family="sans-serif" font-size="14" lengthAdjust="spacing" textLength="4" x="47.5" y="152.3326">&#160;</text></g><!--entity 3fc790322c11926e67562bf139516f23--><g id="elem_3fc790322c11926e67562bf139516f23"><ellipse cx="124" cy="263.79" fill="#F1F1F1" rx="8" ry="8" style="stroke:#181818;stroke-width:0.5;"/><text fill="#000000" font-family="sans-serif" font-size="14" lengthAdjust="spacing" textLength="45" x="101.5" y="293.7851">27017</text></g><!--entity b031ae0cd1bb401acb7549f888bca9af--><g id="elem_b031ae0cd1bb401acb7549f888bca9af"><rect fill="#F1F1F1" height="127.7813" rx="2.5" ry="2.5" style="stroke:#181818;stroke-width:0.5;" width="250" x="272" y="46"/><rect fill="#F1F1F1" height="10" style="stroke:#181818;stroke-width:0.5;" width="15" x="502" y="51"/><rect fill="#F1F1F1" height="2" style="stroke:#181818;stroke-width:0.5;" width="4" x="500" y="53"/><rect fill="#F1F1F1" height="2" style="stroke:#181818;stroke-width:0.5;" width="4" x="500" y="57"/><text fill="#000000" font-family="sans-serif" font-size="14" font-weight="bold" lengthAdjust="spacing" textLength="55" x="287" y="78.9951">python</text><text fill="#000000" font-family="sans-serif" font-size="14" lengthAdjust="spacing" textLength="4" x="287" y="95.292">&#160;</text><text fill="#000000" font-family="sans-serif" font-size="14" lengthAdjust="spacing" textLength="210" x="287" y="111.5889">environment: LC_ALL=C.UTF-8</text><text fill="#000000" font-family="sans-serif" font-size="14" lengthAdjust="spacing" textLength="200" x="287" y="127.8857">environment: LANG=C.UTF-8</text><text fill="#000000" font-family="sans-serif" font-size="14" lengthAdjust="spacing" textLength="177" x="287" y="144.1826">environment: DOCKER=1</text><text fill="#000000" font-family="sans-serif" font-size="14" lengthAdjust="spacing" textLength="4" x="287" y="160.4795">&#160;</text></g><!--entity f20c7a9d76666ea2e7412da3891a67f3--><g id="elem_f20c7a9d76666ea2e7412da3891a67f3"><ellipse cx="477" cy="263.79" fill="#F1F1F1" rx="8" ry="8" style="stroke:#181818;stroke-width:0.5;"/><text fill="#000000" font-family="sans-serif" font-size="14" lengthAdjust="spacing" textLength="36" x="459" y="293.7851">8000</text></g><!--entity 59b47bdb1a91d3ff98d83cd5cf9dccac--><g id="elem_59b47bdb1a91d3ff98d83cd5cf9dccac"><rect fill="#F1F1F1" height="39.2969" rx="2.5" ry="2.5" style="stroke:#181818;stroke-width:0.5;" width="94" x="350" y="490.79"/><polygon fill="#F1F1F1" points="427,495.79,427,509.79,439,509.79,439,501.79,433,495.79,427,495.79" style="stroke:#181818;stroke-width:0.5;"/><line style="stroke:#181818;stroke-width:0.5;" x1="433" x2="433" y1="495.79" y2="501.79"/><line style="stroke:#181818;stroke-width:0.5;" x1="439" x2="433" y1="501.79" y2="501.79"/><text fill="#000000" font-family="sans-serif" font-size="14" lengthAdjust="spacing" textLength="64" x="360" y="516.7851">/opt/app/</text></g><!--entity 37e69ad4a86515fae9ee6cefbcedd554--><g id="elem_37e69ad4a86515fae9ee6cefbcedd554"><ellipse cx="124" cy="400.79" fill="#F1F1F1" rx="8" ry="8" style="stroke:#181818;stroke-width:0.5;"/><text fill="#000000" font-family="sans-serif" font-size="14" lengthAdjust="spacing" textLength="45" x="101.5" y="430.7851">27017</text></g><!--entity 1624c420083928ef3e240dd88f2e52f0--><g id="elem_1624c420083928ef3e240dd88f2e52f0"><ellipse cx="581" cy="400.79" fill="#F1F1F1" rx="8" ry="8" style="stroke:#181818;stroke-width:0.5;"/><text fill="#000000" font-family="sans-serif" font-size="14" lengthAdjust="spacing" textLength="36" x="563" y="430.7851">8000</text></g><!--entity 4ee4e842a5b02b96710ef6f54e60eaf4--><g id="elem_4ee4e842a5b02b96710ef6f54e60eaf4"><rect fill="#F1F1F1" height="39.2969" rx="2.5" ry="2.5" style="stroke:#181818;stroke-width:0.5;" width="39" x="377.5" y="609.08"/><polygon fill="#F1F1F1" points="399.5,614.08,399.5,628.08,411.5,628.08,411.5,620.08,405.5,614.08,399.5,614.08" style="stroke:#181818;stroke-width:0.5;"/><line style="stroke:#181818;stroke-width:0.5;" x1="405.5" x2="405.5" y1="614.08" y2="620.08"/><line style="stroke:#181818;stroke-width:0.5;" x1="411.5" x2="405.5" y1="620.08" y2="620.08"/><text fill="#000000" font-family="sans-serif" font-size="14" lengthAdjust="spacing" textLength="9" x="387.5" y="635.0751">./</text></g><!--link 2a334de255ac0fe4d708c7550fdb165c to 3fc790322c11926e67562bf139516f23--><g id="link_2a334de255ac0fe4d708c7550fdb165c_3fc790322c11926e67562bf139516f23"><path codeLine="27" d="M124,165.73 C124,199.38 124,239.04 124,255.28 " fill="none" id="2a334de255ac0fe4d708c7550fdb165c-3fc790322c11926e67562bf139516f23" style="stroke:#181818;stroke-width:1.0;"/></g><!--link 3fc790322c11926e67562bf139516f23 to 37e69ad4a86515fae9ee6cefbcedd554--><g id="link_3fc790322c11926e67562bf139516f23_37e69ad4a86515fae9ee6cefbcedd554"><path codeLine="28" d="M124,272.43 C124,296.08 124,367.9 124,391.89 " fill="none" id="3fc790322c11926e67562bf139516f23-37e69ad4a86515fae9ee6cefbcedd554" style="stroke:#181818;stroke-width:1.0;"/></g><!--link b031ae0cd1bb401acb7549f888bca9af to f20c7a9d76666ea2e7412da3891a67f3--><g id="link_b031ae0cd1bb401acb7549f888bca9af_f20c7a9d76666ea2e7412da3891a67f3"><path codeLine="29" d="M430.23,173.99 C446.89,205.62 465.16,240.3 473.03,255.25 " fill="none" id="b031ae0cd1bb401acb7549f888bca9af-f20c7a9d76666ea2e7412da3891a67f3" style="stroke:#181818;stroke-width:1.0;"/></g><!--link f20c7a9d76666ea2e7412da3891a67f3 to 1624c420083928ef3e240dd88f2e52f0--><g id="link_f20c7a9d76666ea2e7412da3891a67f3_1624c420083928ef3e240dd88f2e52f0"><path codeLine="30" d="M482.89,272.43 C501.11,296.08 556.44,367.9 574.92,391.89 " fill="none" id="f20c7a9d76666ea2e7412da3891a67f3-1624c420083928ef3e240dd88f2e52f0" style="stroke:#181818;stroke-width:1.0;"/></g><!--link 59b47bdb1a91d3ff98d83cd5cf9dccac to 4ee4e842a5b02b96710ef6f54e60eaf4--><g id="link_59b47bdb1a91d3ff98d83cd5cf9dccac_4ee4e842a5b02b96710ef6f54e60eaf4"><path codeLine="31" d="M397,530.38 C397,552 397,587.17 397,608.8 " fill="none" id="59b47bdb1a91d3ff98d83cd5cf9dccac-4ee4e842a5b02b96710ef6f54e60eaf4" style="stroke:#181818;stroke-width:1.0;"/><text fill="#000000" font-family="sans-serif" font-size="13" lengthAdjust="spacing" textLength="14" x="398" y="575.1469">rw</text></g><!--link b031ae0cd1bb401acb7549f888bca9af to 59b47bdb1a91d3ff98d83cd5cf9dccac--><g id="link_b031ae0cd1bb401acb7549f888bca9af_59b47bdb1a91d3ff98d83cd5cf9dccac"><path codeLine="32" d="M397,174.05 C397,266.67 397,428.45 397,484.57 " fill="none" id="b031ae0cd1bb401acb7549f888bca9af-to-59b47bdb1a91d3ff98d83cd5cf9dccac" style="stroke:#181818;stroke-width:1.0;stroke-dasharray:7.0,7.0;"/><polygon fill="#181818" points="397,490.57,401,481.57,397,485.57,393,481.57,397,490.57" style="stroke:#181818;stroke-width:1.0;"/><text fill="#000000" font-family="sans-serif" font-size="13" lengthAdjust="spacing" textLength="23" x="398" y="337.8569">use</text></g><!--SRC=[XP9RYnD148NVvrSqywI1JVf-2QomnCk3yOBeauXKTrN5G38Jaj6uoFvt9xCAxY9qFpGqNNKutwc2tQu_xxS_jzscwNeaqRxfkqtV2ZW9HHWSE5IaYynPEhPAoX22Ty0-1l6h4QNV7_gEka5eCCOYQUUWI2QBGSOId9ECMNbNnETcDjjVn6UpfjdkOKDBCRsNEnZeD3J7yOBZi1ImEyFjgMc-D4-UYbO7gS9ao709IHgjYr99U_B1UPrPcUIKPssQkpyCxs-7RtqtzMX3HDaQ6pAYzfcBpu4eWScZESI745aQ1IGBgfojL5368fiunfWB9E09uZ2fNoYe-x4zzjr-R5sAzUhhpNfzlPf_-lZoAZxwktdxwly_pz-jNh_uSAt-qaOfvMISjIm14WO_7W9DmIgDO69Iu0ERPengor06qIxwmx20ms4nDRgKBx1PGL9ec5F4Q0gwmWbBWJAcz2ZMG3u1MeZUAST0YSWNubm8qJdxq9VosXQhfOmcwKXiI5k962DhSfhbFxxczuOiaQLeDRWiTKu-A4disLdoae1jKrsTAxog3xzMSAzIOwrkm4MbEfjQmQHIJR8soKcbbgvOYlPuRkjWypdEvy-gwtFH-twYzZS0]--></g></svg>